HIERARCHY
ROOT Hips
{
 OFFSET 0.000000 0.000000 0.000000
 CHANNELS 6 Xposition Yposition Zposition Yrotation Xrotation Zrotation
 JOINT Chest
 {
  OFFSET 0.000000 9.585900 0.002600
  CHANNELS 3 Yrotation Xrotation Zrotation
  JOINT Chest2
  {
   OFFSET 0.000000 9.601200 -0.005300
   CHANNELS 3 Yrotation Xrotation Zrotation
   JOINT Chest3
   {
    OFFSET 0.000000 9.561800 0.000000
    CHANNELS 3 Yrotation Xrotation Zrotation
    JOINT Chest4
    {
     OFFSET 0.000000 9.552100 0.000000
     CHANNELS 3 Yrotation Xrotation Zrotation
     JOINT Neck
     {
      OFFSET 0.000000 14.453000 0.000000
      CHANNELS 3 Yrotation Xrotation Zrotation
      JOINT Head
      {
       OFFSET 0.000000 8.936500 -0.011300
       CHANNELS 3 Yrotation Xrotation Zrotation
       End Site
       {
        OFFSET 0.000000 17.073600 -0.006000
       }
      }
     }
     JOINT RightCollar
     {
      OFFSET -2.921100 9.558500 0.000000
      CHANNELS 3 Yrotation Xrotation Zrotation
      JOINT RightShoulder
      {
       OFFSET -13.519700 0.000000 0.000000
       CHANNELS 3 Yrotation Xrotation Zrotation
       JOINT RightElbow
       {
        OFFSET 0.000000 -29.696600 0.000000
        CHANNELS 3 Yrotation Xrotation Zrotation
        JOINT RightWrist
        {
         OFFSET 0.000000 -24.004700 0.000000
         CHANNELS 3 Yrotation Xrotation Zrotation
         End Site
         {
          OFFSET 0.000000 -17.728500 0.000000
         }
        }
       }
      }
     }
     JOINT LeftCollar
     {
      OFFSET 2.921100 9.558500 0.000000
      CHANNELS 3 Yrotation Xrotation Zrotation
      JOINT LeftShoulder
      {
       OFFSET 13.519700 0.000000 0.000000
       CHANNELS 3 Yrotation Xrotation Zrotation
       JOINT LeftElbow
       {
        OFFSET 0.000000 -29.696600 0.000000
        CHANNELS 3 Yrotation Xrotation Zrotation
        JOINT LeftWrist
        {
         OFFSET 0.000000 -24.004700 0.000000
         CHANNELS 3 Yrotation Xrotation Zrotation
         End Site
         {
          OFFSET 0.000000 -17.728500 0.000000
         }
        }
       }
      }
     }
    }
   }
  }
 }
 JOINT RightHip
 {
  OFFSET -7.771700 -0.012900 -0.001300
  CHANNELS 3 Yrotation Xrotation Zrotation
  JOINT RightKnee
  {
   OFFSET 0.000000 -40.869800 0.001200
   CHANNELS 3 Yrotation Xrotation Zrotation
   JOINT RightAnkle
   {
    OFFSET 0.000000 -39.717900 0.002100
    CHANNELS 3 Yrotation Xrotation Zrotation
    JOINT RightToe
    {
     OFFSET 0.000000 -4.965400 11.033500
     CHANNELS 3 Yrotation Xrotation Zrotation
     End Site
     {
      OFFSET 0.000000 -1.423100 5.872300
     }
    }
   }
  }
 }
 JOINT LeftHip
 {
  OFFSET 7.771700 -0.012900 -0.001300
  CHANNELS 3 Yrotation Xrotation Zrotation
  JOINT LeftKnee
  {
   OFFSET 0.000000 -40.869800 0.001200
   CHANNELS 3 Yrotation Xrotation Zrotation
   JOINT LeftAnkle
   {
    OFFSET 0.000000 -39.717900 0.002100
    CHANNELS 3 Yrotation Xrotation Zrotation
    JOINT LeftToe
    {
     OFFSET 0.000000 -4.965400 11.033500
     CHANNELS 3 Yrotation Xrotation Zrotation
     End Site
     {
      OFFSET 0.000000 -1.423100 5.872300
     }
    }
   }
  }
 }
}
MOTION
Frames: 9
Frame Time: 0.008333
0.000000 85.388000 0.000000 0.000000 -5.767877 0.000000 0.000000 11.653817 0.000000 0.000000 -5.885947 0.000000 0.000000 -0.000000 0.000000 0.000000 -0.000000 0.000000 0.000000 12.528835 0.000000 0.000000 0.711642 0.000000 0.000000 -0.000000 0.000000 0.000000 0.000000 -90.000000 0.000000 -2.309062 0.000000 0.000000 2.309062 0.000000 0.000000 -0.000000 0.000000 0.000000 -0.000000 90.000000 0.000000 -2.309062 0.000000 0.000000 2.309062 0.000000 0.000000 8.520406 0.000000 0.000000 1.905762 0.000000 -0.000000 -4.658285 0.000000 0.000000 -0.000000 0.000000 0.000000 8.520406 0.000000 0.000000 1.905762 0.000000 -0.000000 -4.658285 0.000000 0.000000 -0.000000 0.000000
-238.879539 60.662498 -75.107200 159.885364 -17.933458 3.025678 3.517160 10.621478 1.001638 0.222333 0.719745 0.061338 0.393386 1.229320 0.080247 3.184851 9.768435 0.931982 -0.365655 20.336858 0.039691 -0.398299 -4.164732 0.130236 2.448892 4.401698 -3.275311 -3.565003 -12.121594 -4.426324 25.662055 -80.085924 -13.198880 2.347052 1.061346 -35.320220 -5.427550 1.257027 -4.983596 19.031520 -3.848113 0.493287 -22.767927 -81.424151 8.822854 -6.193922 3.393042 9.757574 2.988885 -51.303332 -0.453403 -23.790888 70.968363 -19.423142 -0.528986 -5.141238 -2.219078 -0.182616 -0.115733 -0.105972 14.873691 -50.572872 -4.428378 27.068216 65.869432 26.707455 -16.443045 -14.987111 1.316601 0.267668 0.011155 0.124284
-238.880232 60.662112 -75.107192 159.877210 -17.936822 3.045622 3.510840 10.633484 1.006710 0.229907 0.714384 0.042991 0.393386 1.229522 0.080019 3.184277 9.767990 0.929167 -0.365448 20.337371 0.040044 -0.400915 -4.156962 0.145254 2.453200 4.412300 -3.263630 -3.578311 -12.114892 -4.399985 25.357893 -80.120997 -12.972844 2.362673 1.065574 -35.320921 -5.453703 1.264251 -4.986785 19.064876 -3.866249 0.457316 -22.779973 -81.469232 8.848449 -6.175270 3.407516 9.763271 3.003544 -51.304803 -0.483941 -23.749764 70.982050 -19.373522 -0.540012 -5.138046 -2.237403 -0.172981 -0.118846 -0.097598 14.903025 -50.564499 -4.443051 27.042359 65.872805 26.681147 -16.523750 -14.958891 1.315253 0.238544 0.001091 0.126052
-238.879174 60.661115 -75.105156 159.872996 -17.933096 3.055761 3.506963 10.635470 1.008468 0.232997 0.710912 0.037371 0.383310 1.237645 0.099009 3.186814 9.763715 0.917626 -0.365994 20.339669 0.040743 -0.404724 -4.151529 0.148110 2.460629 4.420038 -3.270091 -3.587298 -12.115066 -4.388035 24.942949 -80.135574 -12.618633 2.359160 1.059098 -35.348008 -5.451766 1.261317 -5.001978 19.076311 -3.860242 0.394833 -22.577780 -81.560344 8.671569 -6.217960 3.464509 9.753381 2.992713 -51.316345 -0.502383 -23.687962 71.000862 -19.290064 -0.583527 -5.151916 -2.284108 -0.126855 -0.107638 -0.076277 14.925474 -50.563196 -4.439426 27.004946 65.873308 26.632502 -16.554214 -14.923024 1.329524 0.180830 -0.012085 0.107959
-238.882360 60.659324 -75.101375 159.883597 -17.911931 3.087363 3.484221 10.620717 0.981508 0.226258 0.717403 0.049463 0.389164 1.232417 0.086783 3.172880 9.776151 0.929973 -0.365100 20.340991 0.042391 -0.401890 -4.156088 0.137518 2.478580 4.408186 -3.295237 -3.597201 -12.107578 -4.368888 24.532944 -80.137620 -12.258490 2.341956 1.049247 -35.388717 -5.442407 1.252326 -5.024634 19.087796 -3.864098 0.364089 -22.355115 -81.597831 8.464648 -6.247564 3.481152 9.747355 3.008236 -51.342161 -0.559973 -23.664516 71.010714 -19.258063 -0.587184 -5.156585 -2.302692 -0.120082 -0.102338 -0.065570 14.965247 -50.574098 -4.492487 27.036748 65.843860 26.646704 -16.635188 -14.865866 1.338210 0.143723 -0.027892 0.097855
-238.877740 60.658237 -75.098248 159.883126 -17.910891 3.085320 3.476345 10.624517 0.992693 0.231110 0.714867 0.044179 0.387209 1.234146 0.089755 3.167607 9.781860 0.933016 -0.367546 20.346956 0.050200 -0.402069 -4.155255 0.137080 2.486135 4.419905 -3.292380 -3.623562 -12.057932 -4.301872 24.541870 -80.157830 -12.306790 2.317324 1.033358 -35.432386 -5.438276 1.260710 -5.036408 19.091296 -3.859863 0.299781 -22.356388 -81.630721 8.489249 -6.278977 3.492956 9.737356 2.987933 -51.346544 -0.555045 -23.665859 71.015345 -19.246300 -0.583574 -5.156327 -2.321016 -0.111333 -0.104364 -0.063274 14.967619 -50.575705 -4.481553 27.044476 65.832826 26.645062 -16.607080 -14.827718 1.339616 0.152317 -0.036785 0.090529
-238.870114 60.657362 -75.094808 159.866288 -17.913752 3.075601 3.483992 10.633901 1.016182 0.238195 0.710673 0.039852 0.389017 1.233343 0.086800 3.157676 9.790800 0.942467 -0.364619 20.343363 0.044092 -0.408234 -4.145267 0.149836 2.496621 4.430777 -3.294229 -3.651052 -12.019539 -4.246464 24.427716 -80.161576 -12.229140 2.288212 1.013760 -35.477246 -5.437610 1.267053 -5.048697 19.099980 -3.852159 0.225216 -22.434675 -81.658367 8.592189 -6.273326 3.499512 9.746443 2.978449 -51.344975 -0.533030 -23.693971 71.014465 -19.255558 -0.576981 -5.158434 -2.338358 -0.100232 -0.103386 -0.063002 14.974990 -50.569374 -4.452644 27.048697 65.816566 26.637979 -16.504266 -14.797190 1.342075 0.194806 -0.037875 0.087098
-238.864168 60.656485 -75.091104 159.859510 -17.912233 3.075502 3.480071 10.638782 1.025972 0.236499 0.712597 0.039882 0.388761 1.234027 0.087122 3.156325 9.792774 0.942590 -0.361684 20.340334 0.039185 -0.411296 -4.139638 0.155474 2.502281 4.441218 -3.295415 -3.671716 -11.990226 -4.201470 24.245386 -80.153607 -12.080677 2.260687 0.997949 -35.525870 -5.445143 1.304514 -5.060884 19.116998 -3.869738 0.141121 -22.550910 -81.685653 8.726853 -6.219621 3.515609 9.776836 2.946928 -51.349471 -0.515106 -23.673387 71.018964 -19.236703 -0.546755 -5.134178 -2.340771 -0.123780 -0.127173 -0.074405 14.983479 -50.568164 -4.449365 27.077729 65.796339 26.657606 -16.460993 -14.762672 1.335816 0.262165 -0.037088 0.102185
-238.859554 60.655785 -75.087459 159.856161 -17.908462 3.084620 3.475143 10.638901 1.023279 0.231446 0.716655 0.042959 0.382602 1.238024 0.094080 3.159689 9.791852 0.934210 -0.362942 20.344030 0.042409 -0.404948 -4.148301 0.141998 2.498773 4.463183 -3.295185 -3.686422 -11.971108 -4.157437 24.082287 -80.141185 -11.946332 2.239349 0.988791 -35.576398 -5.446143 1.318745 -5.071039 19.129584 -3.858735 0.064369 -22.714951 -81.709181 8.901146 -6.198408 3.535594 9.800675 2.877166 -51.354046 -0.483962 -23.575372 71.026938 -19.176444 -0.521009 -5.136347 -2.339195 -0.151176 -0.124930 -0.080636 15.007877 -50.565653 -4.458619 27.077612 65.778255 26.654136 -16.437728 -14.720562 1.335453 0.279297 -0.038029 0.104709
